<svg height="5em" viewBox="0 0 90 45" xml:space="preserve" xmlns="http://www.w3.org/2000/svg"><g style="display:inline"><path d="M-79.406 83.18q-.577 2.016-2.196 3.403-1.61 1.378-3.221 1.378-1.275 0-2.102-.93-.827-.94-.827-2.3 0-2.222 1.516-4.375t3.678-2.153q1.473 0 2.385 1.093.913 1.086.913 2.593 0 .654-.146 1.283zm-4.479-2.72q-.603.533-1.18 1.704-.577 1.172-.577 2.352 0 .715.259 1.18.267.465.697.465 1.068 0 2.222-1.266 1.155-1.266 1.155-2.842 0-.888-.38-1.456-.37-.577-1.042-.577-.637 0-1.145.44zm8.553 6.58q-.104.886-.99.886-1.129 0-1.129-1.627 0-2.636.284-4.505.224-1.455.224-2.86 0-.335.216-.56.215-.232.602-.232 1.292 0 1.292 1.568 0 .508-.456 2.592-.276 1.24-.276 1.8 2.464-5.408 4.444-5.408.801 0 1.284.637.49.637.508 2.825.009 1.998.207 1.998.155 0 1.076-1.938 1.025-2.144 1.749-2.833.732-.69 1.533-.69.956 0 1.386.827.431.819.603 2.774.13 1.55.345 2.342.224.793.758 1.051.43.207.43.62 0 .37-.49.75-.492.37-1 .37-.878 0-1.378-.861-.49-.87-.663-3.48-.095-1.257-.207-1.662-.103-.414-.318-.414-.19 0-.552.62-.361.612-1.248 2.447-.784 1.653-1.353 2.308-.56.654-1.205.654-.5 0-1.008-.43-.5-.431-.543-3.127-.043-2.403-.31-2.403-.361 0-1.74 2.136-1.378 2.136-2.075 3.824zm23.073-2.455q0 .895-1.507 2.144-1.507 1.24-3.402 1.24-1.455 0-2.29-.912-.836-.922-.836-2.558 0-2.412 1.705-4.522 1.705-2.11 3.643-2.11.965 0 1.55.611.586.612.586 1.456 0 1.498-1.438 2.86-1.439 1.351-3.686 1.868-.259.06-.259.31 0 .414.362.793.37.37.982.37 1.73 0 3.436-1.783.328-.344.638-.344.516 0 .516.577zm-5.779-1.525q1.361-.275 2.395-1.163 1.042-.887 1.042-1.61 0-.284-.164-.474-.155-.198-.405-.198-.75 0-1.662 1.103-.913 1.102-1.206 2.342zm9.362.216.147-.276q1.042-2.093 2.239-3.394 1.206-1.309 2.351-1.309.879 0 1.43.483.56.482.56 1.145 0 .414-.19.715-.19.293-.525.293-.534 0-.973-.44-.31-.284-.491-.284-.646 0-2.162 2.007t-1.826 4.513q-.095.724-.422 1.008-.327.293-.887.293-.594 0-.844-.672-.25-.68-.25-2.214 0-.628.035-1.696.034-1.008.198-2.463.043-.38.06-.595.077-.844.172-1.154.104-.319.465-.594.362-.276.801-.276.465 0 .707.267.24.267.24.586 0 .405-.387 1.68-.138.439-.232 1.05zm14.935-.095q-.577 2.015-2.196 3.402-1.611 1.378-3.222 1.378-1.274 0-2.101-.93-.827-.94-.827-2.3 0-2.222 1.516-4.375t3.678-2.153q1.472 0 2.385 1.093.913 1.086.913 2.593 0 .654-.146 1.283zm-4.479-2.722q-.603.534-1.18 1.705-.577 1.172-.577 2.352 0 .715.259 1.18.267.465.697.465 1.068 0 2.222-1.266t1.154-2.842q0-.888-.379-1.456-.37-.577-1.042-.577-.637 0-1.145.44z" style="font-weight:700;font-size:17.6389px;font-family:'Segoe Print';-inkscape-font-specification:'Segoe Print, Bold';fill:#d3d2d2;stroke-width:.264583" aria-label="omero" transform="translate(118.055 -60.49)"/><path d="M-69.22 91.46q0-.734-.38-.893-.38-.166-.948-.166-1.168 0-2.122.463-.948.458-.948 1.103 0 .463.42.81.424.342 1.84.755 1.373.397 1.951.821.585.42.585 1.015 0 .6-.81 1.3-.81.695-1.957 1.059-1.141.364-1.94.364-.668 0-1.015-.16-.342-.155-.342-.392 0-.165.1-.402.104-.243.21-.243.11 0 .225.04.59.22 1.169.22 1.041 0 2.21-.607 1.169-.612 1.169-1.14 0-.227-.359-.43-.352-.21-1.797-.668-1.791-.567-2.205-1.102-.407-.54-.407-1.136 0-1.146 1.317-1.846 1.317-.706 2.756-.706.954 0 1.466.325.513.32.513.711 0 .188-.116.546-.116.358-.584.358zm5.386 4.145q-.771 1.036-1.527 1.554-.755.518-1.383.518-.425 0-.733-.358-.309-.358-.309-.92 0-1.45 1.295-3.12 1.296-1.676 2.575-1.676.463 0 .689.529.071.176.226.176.44 0 .44.342 0 .171-.055.469-.297 1.626-.297 2.293 0 1.334.507 1.598.242.133.242.325 0 .171-.237.342-.237.177-.457.177-.425 0-.7-.585-.276-.584-.276-1.664zm-.336-3.104q-.728 0-1.692 1.367-.965 1.362-.965 2.26 0 .634.42.634.605 0 1.68-1.224 1.075-1.223 1.075-2.248 0-.789-.518-.789zm7.408.75q-.512.011-2.193 3.037-.568 1.02-.662 1.114-.094.088-.347.16-.248.071-.414.071-.369 0-.369-1.439 0-.81.347-2.932.144-.86.144-1.23 0-.363.325-.363.612 0 .612.882 0 .413-.204 1.62-.237 1.379-.243 1.676.342-.33 1.003-1.45.938-1.532 1.378-1.94.447-.413.921-.413.358 0 .568.48.215.479.259 2.287.01.452.083.672.071.22.104.22.26 0 1.125-1.763.463-.932.898-1.417.441-.485.976-.485.446 0 .65.463.204.458.292 1.362.083.915.254 1.675.176.761.64.976.314.149.314.347 0 .193-.265.397-.265.204-.485.204-.441 0-.788-.54-.348-.54-.524-2.337-.077-.722-.149-1.025-.071-.304-.226-.304-.231 0-.551.441-.314.441-1.02 1.792-.551 1.053-.838 1.405-.28.348-.545.348-.237 0-.425-.188-.187-.193-.237-.457-.05-.27-.104-1.318-.083-1.741-.304-2.028zm11.333 1.962q-.705 1.185-1.444 1.836-.738.65-1.372.65-.364 0-.745-.424-.374-.425-.374-1.307 0-.722.347-2.127.292-1.174.292-1.648.16-.331.502-.331.231 0 .369.165.138.16.138.336 0 .386-.27 1.097-.513 1.384-.513 2.376 0 .904.419.904.535 0 1.362-.91.826-.909 1.416-2.535.232-.65.375-.843.149-.199.397-.199.375 0 .375.496 0 .061-.105.403-.33 1.207-.33 2.282 0 1.29.424 1.67.22.204.22.33 0 .155-.226.282-.22.127-.402.127-.386 0-.623-.574-.237-.573-.237-1.692v-.182q0-.088.005-.182zm7.712.53q0 .562-.998 1.355-.992.794-2.05.794-.888 0-1.373-.523-.48-.524-.48-1.461 0-1.577 1.064-2.999 1.064-1.422 2.327-1.422.413 0 .672.27.265.27.265.65 0 .85-.833 1.627-.832.777-2.227 1.527-.286.148-.286.385 0 .458.264.733.265.276.783.276 1.185 0 2.42-1.312.182-.182.275-.182.177 0 .177.281zm-3.831-.86q2.337-1.39 2.337-2.233 0-.33-.298-.33-.507 0-1.146.744-.634.744-.893 1.819zm6.912-6.604q.397 0 .397.507 0 .452-.48 2.15-.303 1.07-.468 2.359-.165 1.29-.165 2.023 0 .91.115 1.808.022.17.022.248 0 .276-.187.474-.187.199-.397.199-.292 0-.408-.364-.11-.364-.11-1.174 0-1.847.44-4.575.447-2.729.706-3.192.265-.463.535-.463z" style="font-size:11.2889px;font-family:'Segoe Print';-inkscape-font-specification:'Segoe Print, Normal';fill:#d3d2d2;stroke-width:.264583" aria-label="Samuel" transform="translate(118.055 -60.49)"/></g><path style="display:inline;fill:#ffa800;fill-opacity:1;stroke-width:.264584" d="m-260.962-83.283 11.302 61.82 11.644-75.207" transform="matrix(.53184 0 0 .53184 142.938 53.778)"/><path style="display:inline;fill:#ff6f00;fill-opacity:1;stroke-width:.264584" d="m-237.51-96.676 24.991 17.253-13.75 17.638-14.79-11.711" transform="matrix(.53184 0 0 .53184 142.938 53.778)"/><path style="display:inline;fill:#ffa800;fill-opacity:1;stroke-width:.264584" d="m-212.21-79.177-4.648 25.334-20.052 6.731" transform="matrix(.53184 0 0 .53184 142.938 53.778)"/><path style="display:inline;fill:#ff6f00;fill-opacity:1;stroke-width:.264584" d="m-236.716-46.617 16.707 25.17 15.456-10.422-18.772-19.185" transform="matrix(.53184 0 0 .53184 142.938 53.778)"/></svg>
